<svg xmlns="http://www.w3.org/2000/svg" viewBox="0 0 300 300" xml:space="preserve">
<path fill="#F4F4F4" d="M195.637 60.881v.156c-7.007-18.652-24.973-31.981-46.041-31.981-21.01 0-38.935 13.258-45.983 31.824h-15.88v34.771h15.846c5.827 15.357 19.118 27.068 35.436 30.661v13.482h21.165v-13.482c16.338-3.599 29.641-15.331 35.458-30.714v.053h16.63v-34.77h-16.631zm-46.04 51.489c-18.801 0-34.098-15.295-34.098-34.098 0-18.803 15.297-34.098 34.098-34.098 18.802 0 34.098 15.295 34.098 34.098 0 18.803-15.297 34.098-34.098 34.098z"/>
<path fill="#F9F9F9" d="M154.791 29.34c-1.649-.165-3.314-.283-5.008-.283-21.01 0-38.935 13.258-45.983 31.824h10.016c6.479-17.073 22.163-29.622 40.975-31.541zM87.919 60.881h10.016v34.771H87.919zM113.78 95.652h-10.016c5.827 15.357 19.118 27.068 35.436 30.661v13.482h10.016v-13.482c-16.318-3.593-29.608-15.304-35.436-30.661z"/><circle transform="rotate(-77.614 149.595 78.193)" fill="#AA6148" cx="149.597" cy="78.19" r="34.098"/>
<path fill="#BC715C" d="M128.156 78.19c0-16.671 12.032-30.561 27.862-33.502a34.18 34.18 0 0 0-6.236-.597c-18.802 0-34.098 15.295-34.098 34.098 0 18.803 15.297 34.098 34.098 34.098a34.18 34.18 0 0 0 6.236-.596c-15.83-2.944-27.862-16.83-27.862-33.501z"/>
<path fill="#AA6148" d="m135.687 139.795-6.047 111.191c0 11.022 8.935 19.957 19.957 19.957 11.023 0 19.958-8.935 19.958-19.957l-6.047-111.191h-27.821z"/>
<path fill="#BC715C" d="m142.868 250.986 6.047-111.191h-13.228l-6.047 111.191c0 11.022 8.935 19.957 19.957 19.957a19.85 19.85 0 0 0 6.614-1.146c-7.767-2.73-13.343-10.109-13.343-18.811z"/>
<circle fill="#F4F4F4" cx="149.597" cy="252.548" r="3.78"/>
<path fill="#F4F4F4" d="M152.126 78.187a2.528 2.528 0 1 1-2.529-2.527 2.526 2.526 0 0 1 2.529 2.527zM132.169 78.187a2.528 2.528 0 1 1-2.529-2.527 2.527 2.527 0 0 1 2.529 2.527zM172.084 78.187a2.528 2.528 0 1 1-5.058 0 2.527 2.527 0 0 1 2.529-2.527 2.527 2.527 0 0 1 2.529 2.527zM152.126 59.794a2.528 2.528 0 1 1-2.529-2.528 2.53 2.53 0 0 1 2.529 2.528zM152.126 95.823a2.53 2.53 0 1 1-5.06.006 2.53 2.53 0 0 1 5.06-.006zM140.908 67.855a2.528 2.528 0 1 1-2.529-2.528 2.53 2.53 0 0 1 2.529 2.528zM140.908 88.515a2.53 2.53 0 1 1-5.06.006 2.53 2.53 0 0 1 5.06-.006z"/><g>
<path fill="#F4F4F4" d="M163.343 67.855a2.528 2.528 0 1 1-2.529-2.528 2.53 2.53 0 0 1 2.529 2.528z"/></g><g>
<path fill="#F4F4F4" d="M163.343 88.515a2.53 2.53 0 1 1-5.06.006 2.53 2.53 0 0 1 5.06-.006z"/></g><g>
<path fill="#161616" d="M149.597 275.479c-13.506 0-24.493-10.987-24.493-24.493l1.351-24.939c.136-2.504 2.313-4.361 4.775-4.284a4.533 4.533 0 0 1 4.281 4.774l-1.344 24.694c.007 8.259 6.926 15.177 15.43 15.177s15.422-6.918 15.422-15.422l-5.807-106.656h-19.231l-3.334 61.284c-.136 2.504-2.319 4.343-4.775 4.284a4.533 4.533 0 0 1-4.281-4.775l3.567-65.574a4.535 4.535 0 0 1 4.528-4.29h27.821a4.535 4.535 0 0 1 4.528 4.29l6.047 111.191c.008 13.752-10.979 24.739-24.485 24.739z"/>
<circle fill="#161616" cx="149.597" cy="252.548" r="3.78"/>
<path fill="#161616" d="M160.18 144.331h-21.165a4.535 4.535 0 0 1-4.535-4.535v-9.965c-15.119-4.42-27.477-15.207-33.933-29.642H87.733a4.536 4.536 0 0 1-4.535-4.535V60.881a4.535 4.535 0 0 1 4.535-4.535h12.852c8.609-19.16 27.918-31.825 49.012-31.825a53.513 53.513 0 0 1 26.598 7.104 4.535 4.535 0 1 1-4.518 7.866 44.424 44.424 0 0 0-22.081-5.899c-18.406 0-35.18 11.613-41.743 28.898a4.536 4.536 0 0 1-4.24 2.926H92.268v25.701h11.31a4.533 4.533 0 0 1 4.24 2.926c5.381 14.182 17.408 24.59 32.171 27.841a4.535 4.535 0 0 1 3.56 4.429v8.947h12.094v-8.947a4.535 4.535 0 0 1 3.56-4.429c14.786-3.257 26.82-13.683 32.192-27.889a4.527 4.527 0 0 1 4.934-2.879h11.402v-25.7h-11.256a.157.157 0 0 0-.028.006c-2.153.391-4.284-.735-5.057-2.789-1.355-3.608-3.238-7.1-5.594-10.379a4.533 4.533 0 0 1 1.035-6.329 4.533 4.533 0 0 1 6.329 1.035 54.622 54.622 0 0 1 5.44 9.385h13.665a4.535 4.535 0 0 1 4.535 4.535v34.771a4.535 4.535 0 0 1-4.535 4.535h-13.618c-6.455 14.433-18.81 25.219-33.934 29.642v9.965a4.533 4.533 0 0 1-4.533 4.538zm-10.583-27.425c-21.302 0-38.633-17.329-38.633-38.633 0-21.302 17.331-38.633 38.633-38.633 21.302 0 38.633 17.331 38.633 38.633 0 21.303-17.331 38.633-38.633 38.633zm0-68.196c-16.301 0-29.563 13.262-29.563 29.563 0 16.302 13.262 29.563 29.563 29.563s29.563-13.261 29.563-29.563c0-16.301-13.262-29.563-29.563-29.563z"/>
<path fill="#161616" d="M152.126 78.187a2.528 2.528 0 1 1-2.529-2.527 2.526 2.526 0 0 1 2.529 2.527zM132.169 78.187a2.528 2.528 0 1 1-2.529-2.527 2.527 2.527 0 0 1 2.529 2.527zM172.084 78.187a2.528 2.528 0 1 1-5.058 0 2.527 2.527 0 0 1 2.529-2.527 2.527 2.527 0 0 1 2.529 2.527zM152.126 59.794a2.528 2.528 0 1 1-2.529-2.528 2.53 2.53 0 0 1 2.529 2.528zM152.126 95.823a2.53 2.53 0 1 1-5.06.006 2.53 2.53 0 0 1 5.06-.006zM140.908 67.855a2.528 2.528 0 1 1-2.529-2.528 2.53 2.53 0 0 1 2.529 2.528zM140.908 88.515a2.53 2.53 0 1 1-5.06.006 2.53 2.53 0 0 1 5.06-.006zM163.343 67.855a2.528 2.528 0 1 1-2.529-2.528 2.53 2.53 0 0 1 2.529 2.528zM163.343 88.515a2.53 2.53 0 1 1-5.06.006 2.53 2.53 0 0 1 5.06-.006z"/></g>
</svg>